<?xml version="1.0" encoding="utf-8"?>
<!-- Generator: Adobe Illustrator 23.1.1, SVG Export Plug-In . SVG Version: 6.00 Build 0)  -->
<svg version="1.1" id="Capa_1" xmlns="http://www.w3.org/2000/svg" xmlns:xlink="http://www.w3.org/1999/xlink" x="0px" y="0px"
	 viewBox="0 0 16 16" style="enable-background:new 0 0 16 16;" xml:space="preserve">
<style type="text/css">
	.st0{fill:#FFFFFF;}
</style>
<path class="st0" d="M0,3.5C0,2.7,0.7,2,1.5,2h9C11.3,2,12,2.7,12,3.5V5h1c0.5,0,0.9,0.2,1.2,0.6l1.5,1.8C15.9,7.7,16,8,16,8.4v2.1
	c0,0.8-0.7,1.5-1.5,1.5H14c0,1.1-0.9,2-2,2s-2-0.9-2-2H5c0,1.1-0.9,2-2,2s-2-0.9-2-2c0,0,0-0.1,0-0.1c-0.6-0.2-1-0.8-1-1.4V3.5z
	 M1.3,11C1.9,10,3.1,9.7,4,10.3c0.3,0.2,0.5,0.4,0.7,0.7h5.5c0.2-0.3,0.4-0.6,0.7-0.7V3.5C11,3.2,10.8,3,10.5,3h-9
	C1.2,3,1,3.2,1,3.5v7C1,10.7,1.1,10.9,1.3,11z M12,10c0.7,0,1.4,0.4,1.7,1h0.8c0.3,0,0.5-0.2,0.5-0.5V8.4c0-0.1,0-0.2-0.1-0.3
	l-1.5-1.8C13.3,6.1,13.2,6,13,6h-1V10z M3,11c-0.6,0-1,0.4-1,1s0.4,1,1,1s1-0.4,1-1S3.6,11,3,11z M12,11c-0.6,0-1,0.4-1,1s0.4,1,1,1
	s1-0.4,1-1S12.6,11,12,11z"/>
</svg>
